<?xml version="1.0" encoding="utf-8"?>
<!-- Generator: Adobe Illustrator 26.0.0, SVG Export Plug-In . SVG Version: 6.00 Build 0)  -->
<svg version="1.1" id="Layer_1" xmlns="http://www.w3.org/2000/svg" xmlns:xlink="http://www.w3.org/1999/xlink" x="0px" y="0px"
	 viewBox="0 0 612 792" style="enable-background:new 0 0 612 792;" xml:space="preserve">
<style type="text/css">
	.st0{fill:#1E1E1C;}
	.st1{fill:#33377F;}
	.st2{fill:#C41D1D;}
	.st3{fill:#339037;}
	.st4{clip-path:url(#SVGID_00000091693774311407218670000008816431185975886227_);fill:#8DC585;}
	.st5{clip-path:url(#SVGID_00000091693774311407218670000008816431185975886227_);fill:#40A348;}
	.st6{clip-path:url(#SVGID_00000091693774311407218670000008816431185975886227_);fill:#2A8F37;}
	.st7{clip-path:url(#SVGID_00000091693774311407218670000008816431185975886227_);fill:#2F387E;}
	.st8{clip-path:url(#SVGID_00000091693774311407218670000008816431185975886227_);fill:#2C9037;}
	.st9{clip-path:url(#SVGID_00000091693774311407218670000008816431185975886227_);fill:#2B387B;}
	.st10{clip-path:url(#SVGID_00000091693774311407218670000008816431185975886227_);fill:#EED301;}
	.st11{clip-path:url(#SVGID_00000091693774311407218670000008816431185975886227_);fill:#E8BD05;}
	.st12{clip-path:url(#SVGID_00000091693774311407218670000008816431185975886227_);fill:#C41D1D;}
	.st13{clip-path:url(#SVGID_00000091693774311407218670000008816431185975886227_);fill:#FFFFFF;}
	.st14{clip-path:url(#SVGID_00000091693774311407218670000008816431185975886227_);fill:#288F37;}
</style>
<g>
	<g>
		<path class="st0" d="M203.13,456.03H179.7v73.81h-13.77v-73.81H142.5v-13.61h60.63V456.03z"/>
		<path class="st0" d="M262.07,529.84L238.54,496H227.8v33.84h-13.72l-0.05-87.42h27.17c16.27,0,29.61,12.53,29.61,28.09
			c0,11.28-7.27,21.09-17.3,24.35l25.43,34.98H262.07z M241.52,484.61c8.24,0.05,15.13-6.62,15.13-14.42c0-8.13-7-14.15-15.13-14.15
			h-13.77v28.58H241.52z"/>
		<path class="st0" d="M343.19,516.55h-41.38l-5.96,13.29h-14.86l41.11-89.21h0.81l41.11,89.21h-14.86L343.19,516.55z
			 M337.88,504.78l-15.35-34.17l-15.4,34.17H337.88z"/>
		<path class="st0" d="M443.67,486.24c0,26.84-17.3,43.6-45.07,43.6h-24.89v-87.42h24.89C426.37,442.37,443.67,459.18,443.67,486.24
			z M429.78,486.18c0-18.55-12.04-30.15-31.24-30.15h-11.17v60.14h11.33C417.8,516.17,429.78,504.62,429.78,486.18z"/>
		<path class="st0" d="M469.96,455.92v22.4h33.08v13.67h-33.08v24.19h38.34v13.67h-52.06v-87.42h52.06v13.5H469.96z"/>
	</g>
	<path class="st0" d="M168.55,550.47v4.96h7.33v3.03h-7.33v5.36h8.49v3.03h-11.53v-19.36h11.53v2.99H168.55z M180.02,559.5v-12.02
		h3.05v12.01c0,2.68,1.89,4.64,4.25,4.64c2.37,0,4.28-1.96,4.28-4.64v-12.01h3.06v12.02c0,4.44-3.21,7.7-7.33,7.7
		S180.02,563.95,180.02,559.5z M208.82,566.84l-5.21-7.5h-2.38v7.5h-3.04l-0.01-19.36h6.02c3.6,0,6.56,2.77,6.56,6.22
		c0,2.5-1.61,4.67-3.83,5.39l5.63,7.75H208.82z M204.27,556.82c1.83,0.01,3.35-1.47,3.35-3.2c0-1.8-1.55-3.13-3.35-3.13h-3.05v6.33
		H204.27z M213.68,557.18c0-5.53,4.49-10.04,10.01-10.04c5.5,0,10.02,4.52,10.02,10.04c0,5.48-4.52,9.97-10.03,9.97
		C218.17,567.15,213.68,562.66,213.68,557.18z M230.63,557.16c0-3.83-3.13-6.95-6.95-6.95c-3.82,0-6.93,3.12-6.93,6.95
		c0,3.81,3.11,6.92,6.93,6.92C227.5,564.08,230.63,560.97,230.63,557.16z M236.49,547.48h6.47c3.75,0,6.81,2.87,6.81,6.39
		c0,3.45-3.06,6.26-6.81,6.26h-3.44v6.71h-3.04V547.48z M246.73,553.84c0-1.85-1.69-3.35-3.77-3.35h-3.44v6.62l3.44,0.01
		C245.04,557.14,246.73,555.66,246.73,553.84z M255.23,550.47v4.96h7.33v3.03h-7.33v5.36h8.49v3.03H252.2v-19.36h11.53v2.99H255.23z
		 M273.17,556.07h9.49v2.67h-9.49V556.07z M304.79,550.49h-5.19v16.35h-3.05v-16.35h-5.19v-3.01h13.43V550.49z M307.02,559.5v-12.02
		h3.05v12.01c0,2.68,1.89,4.64,4.25,4.64c2.37,0,4.28-1.96,4.28-4.64v-12.01h3.06v12.02c0,4.44-3.21,7.7-7.33,7.7
		C310.21,567.2,307.02,563.95,307.02,559.5z M310.38,544.04c0-0.68,0.58-1.27,1.26-1.27s1.26,0.59,1.26,1.27s-0.58,1.25-1.26,1.25
		S310.38,544.73,310.38,544.04z M315.77,544.04c0-0.68,0.58-1.27,1.25-1.27c0.7,0,1.27,0.59,1.27,1.27s-0.58,1.25-1.27,1.25
		C316.34,545.29,315.77,544.73,315.77,544.04z M335.82,566.84l-5.21-7.5h-2.38v7.5h-3.04l-0.01-19.36h6.02
		c3.6,0,6.56,2.77,6.56,6.22c0,2.5-1.61,4.67-3.83,5.39l5.63,7.75H335.82z M331.27,556.82c1.83,0.01,3.35-1.47,3.35-3.2
		c0-1.8-1.55-3.13-3.35-3.13h-3.05v6.33H331.27z M351.79,566.84l-7.16-9.37v9.37h-3.03v-19.36h3.03v9.27l6.65-9.27h3.53l-6.87,9.5
		l7.56,9.86H351.79z M357.55,547.48h3.04v19.36h-3.04V547.48z M357.63,543.86c0-0.78,0.65-1.45,1.44-1.45
		c0.78,0,1.44,0.67,1.44,1.45c0,0.79-0.66,1.43-1.44,1.43C358.27,545.29,357.63,544.64,357.63,543.86z M369.16,558.56l-6.43-11.09
		h3.42l4.5,7.71l4.52-7.71h3.42l-6.43,11.09v8.28h-3.01V558.56z M383.79,550.47v4.96h7.33v3.03h-7.33v5.36h8.49v3.03h-11.53v-19.36
		h11.53v2.99H383.79z M401.74,556.07h9.49v2.67h-9.49V556.07z M424.42,563.9h-9.16l-1.32,2.94h-3.29l9.1-19.76h0.18l9.1,19.76h-3.29
		L424.42,563.9z M423.24,561.29l-3.4-7.57l-3.41,7.57H423.24z M441.83,566.84l-5.21-7.5h-2.38v7.5h-3.04l-0.01-19.36h6.02
		c3.6,0,6.56,2.77,6.56,6.22c0,2.5-1.61,4.67-3.83,5.39l5.63,7.75H441.83z M437.28,556.82c1.83,0.01,3.35-1.47,3.35-3.2
		c0-1.8-1.55-3.13-3.35-3.13h-3.05v6.33H437.28z M459.81,563.9h-9.16l-1.32,2.94h-3.29l9.1-19.76h0.18l9.1,19.76h-3.29L459.81,563.9
		z M458.63,561.29l-3.4-7.57l-3.41,7.57H458.63z M479.9,560.94c0,2.97-2.25,5.9-6.09,5.9h-7.24v-19.36h5.28c3.34,0,5.6,2.4,5.6,4.97
		c0,2.09-1.45,3.48-2.17,3.48C477.45,555.93,479.9,557.93,479.9,560.94z M469.6,550.43v4.83l2.4-0.01c1.5,0.01,2.61-1.02,2.61-2.4
		s-1.2-2.41-2.57-2.41H469.6z M476.94,560.74c0-1.47-1.25-2.81-3.45-2.81l-3.89,0.01v5.93h3.94
		C475.28,563.87,476.94,562.61,476.94,560.74z M482.31,547.48h3.04v19.36h-3.04V547.48z M482.4,543.86c0-0.78,0.65-1.45,1.44-1.45
		c0.78,0,1.44,0.67,1.44,1.45c0,0.79-0.66,1.43-1.44,1.43C483.03,545.29,482.4,544.64,482.4,543.86z M501.27,563.9h-9.16l-1.32,2.94
		h-3.29l9.1-19.76h0.18l9.1,19.76h-3.29L501.27,563.9z M500.09,561.29l-3.4-7.57l-3.41,7.57H500.09z"/>
	<polygon class="st1" points="241.16,280.53 241.16,254.77 141.78,254.77 141.78,421.63 241.16,421.63 241.16,395.55 167.96,395.55 
		167.96,349.37 241.16,349.37 241.16,323.29 167.96,323.29 167.96,280.53 	"/>
	<polygon class="st2" points="253.18,254.78 253.18,280.75 301.81,280.75 301.81,421.62 328.11,421.62 328.11,280.75 329.84,280.75 
		371.88,280.95 371.88,254.95 	"/>
	<polygon class="st3" points="470.73,339.46 462.63,321.54 432.54,254.77 431.04,254.77 400.02,323.62 392.29,340.75 355.85,421.63 
		383.03,421.63 393.95,396.79 418.99,340.03 426.67,322.63 431.86,310.86 436.88,322.32 444.56,339.74 469.66,396.79 480.59,421.63 
		507.77,421.63 	"/>
	<g>
		<defs>
			<rect id="SVGID_1_" x="-18" y="72" width="648" height="648"/>
		</defs>
		<clipPath id="SVGID_00000013156029563165671320000009814323530972993957_">
			<use xlink:href="#SVGID_1_"  style="overflow:visible;"/>
		</clipPath>
		<path style="clip-path:url(#SVGID_00000013156029563165671320000009814323530972993957_);fill:#8DC585;" d="M413.83,325.8
			c0,0-2.28,0.98-3.44,2.69c0,0,4.34-1.29,7.49-0.68c0,0-16.07,4.53-13.29,22.44c0,0,2.84-6.73,6.66-9.46c0,0-0.17,2.12,0.21,3.59
			c0,0,2.54-6.28,6.46-9.16c0,0-1.47,2.16-1.32,3.55c0,0,1.4-1.81,4.21-3.05c0,0-4.23,8.26,7.54,13.85c0,0-3.49-6.06-2.58-9.1
			c0,0,1.69,1.07,3.04,1.8c0,0-2.6-4.7,0.32-8.91c6.74,12.9-2.04,28.72-5.2,33.68c6.25-0.5,12.36-0.41,18.26,0.22
			c3.02-7.08,8.34-11.98,11.99-14.72c-0.11,0.69-0.6,2.45-2.77,3.95c0,0,1.82,0.04,2.68-0.29c0,0-1.82,3.01-4.41,4.07
			c0,0,1.61,0.29,3.44-0.21c0,0-2.54,4.1-5.85,5.33c0,0,5.75,0.35,9.39-2.92c3.13-2.81,3.38-7.54,3.38-7.54s0.76,0.95,0.96,2.36
			c0,0,0.89-0.97,0.85-2.13c0,0,1.71,1.82,1.66,4.04c0,0,1.39-1.31,1.48-2.13c0,0,2.48,3.4,0.73,6.53c0,0,3.82-2.93,3.13-7.23
			c-0.74-4.63-4.6-5.53-4.6-5.53s2.11-0.22,4.15,0.48c0,0-0.74-1.33-1.99-1.73c0,0,4.94-1.45,10.81,1.58c0,0-5.65-5.92-14.69-4.58
			c0,0,4.4-6.83-5.75-10.92c0,0,2.33,3.65,2.08,7.14c0,0-0.86-1.12-2.29-1.58c0,0,1.15,2.19,0.7,3.92c0,0-4.07-8.12-18.88-5.02
			c0,0,5.64,0.89,7.98,2.67c0,0-1.76,0.1-2.98,0.44c0,0,5.26,0.77,7.73,2.6c0,0-1.82-0.58-2.97-0.38c0,0,1.52,0.58,2.61,1.95
			c0,0-6.94-1.49-11.36,5.27c0,0,4.96-2.41,7.51-2.2c0,0-0.85,1-1.43,1.78c0,0,3.35-1.57,6.68-0.84
			c-11.98,6.2-17.18,14.36-17.18,14.36c7.25-16.82-0.99-30.8-3.03-33.84c1.55,0.32,4.06,1.16,6,3.35c0,0,0.45-2.19,0-3.22
			c0,0,5.27,2.31,6.74,5.47c0,0,0.88-1.92,0.32-4.14c0,0,7.15,3.22,8.8,7.24c0,0,1.83-6.89-3.55-11.39
			c-4.62-3.87-13.44-4.38-13.44-4.38s1.94-0.88,4.63-1.05c0,0-1.63-1.1-3.82-1.11c0,0,3.76-1.97,7.92-1.82c0,0-2.17-1.73-3.69-1.87
			c0,0,6.88-2.82,12.4-0.59c0,0-4.73-4.72-12.92-4.07c-8.85,0.69-11.32,5.28-11.32,5.28s0.01-2.54,1.76-4.96
			c0,0-2.64,0.83-3.65,2.32c0,0-1.69-5.99,5.19-12.89c0,0-12.28,6.52-11.62,17.42c0,0-11.9-5.56-21.67,6.44
			C400,328,407.33,325.36,413.83,325.8"/>
		<path style="clip-path:url(#SVGID_00000013156029563165671320000009814323530972993957_);fill:#40A348;" d="M434.09,381.04
			c16.4,3.78,31.38,9.86,42.93,20.5c-8.71-14.39-23-25.39-40.69-29.47c-17.69-4.07-36.39,1.37-50.52,10.5
			C400.85,378.06,417.69,377.26,434.09,381.04"/>
		<path style="clip-path:url(#SVGID_00000013156029563165671320000009814323530972993957_);fill:#2A8F37;" d="M432.44,373.48
			c22.26,0,43.15,5.88,61.19,16.17c-15.5-15.96-37.19-25.88-61.19-25.88c-24.01,0-45.69,9.92-61.19,25.88
			C389.29,379.36,410.18,373.48,432.44,373.48"/>
		<path style="clip-path:url(#SVGID_00000013156029563165671320000009814323530972993957_);fill:#2A8F37;" d="M432.46,387.49
			c16.22-0.03,31.45,4.23,44.6,11.71c-11.31-11.61-27.13-19.3-44.62-19.27c-17.49,0.03-33.28,7.77-44.55,19.42
			C401.02,391.83,416.23,387.52,432.46,387.49"/>
		
			<rect x="142.17" y="429.23" style="clip-path:url(#SVGID_00000013156029563165671320000009814323530972993957_);fill:#2F387E;" width="159.42" height="10.06"/>
		
			<rect x="328.85" y="429.23" style="clip-path:url(#SVGID_00000013156029563165671320000009814323530972993957_);fill:#2C9037;" width="178.54" height="10.06"/>
		
			<rect x="310.7" y="430.89" style="clip-path:url(#SVGID_00000013156029563165671320000009814323530972993957_);fill:#2B387B;" width="7.62" height="6.46"/>
		<polygon style="clip-path:url(#SVGID_00000013156029563165671320000009814323530972993957_);fill:#EED301;" points="
			314.79,431.47 314.81,431.68 314.62,431.6 314.42,431.68 314.44,431.47 314.3,431.32 314.51,431.26 314.62,431.08 314.72,431.26 
			314.93,431.32 		"/>
		<polygon style="clip-path:url(#SVGID_00000013156029563165671320000009814323530972993957_);fill:#E8BD05;" points="
			314.62,431.42 314.3,431.31 314.5,431.27 		"/>
		<polygon style="clip-path:url(#SVGID_00000013156029563165671320000009814323530972993957_);fill:#E8BD05;" points="
			314.72,431.27 314.61,431.42 314.61,431.09 		"/>
		<polygon style="clip-path:url(#SVGID_00000013156029563165671320000009814323530972993957_);fill:#E8BD05;" points="
			314.93,431.31 314.79,431.47 314.61,431.42 		"/>
		<polygon style="clip-path:url(#SVGID_00000013156029563165671320000009814323530972993957_);fill:#E8BD05;" points="
			314.81,431.68 314.61,431.6 314.61,431.41 		"/>
		<polygon style="clip-path:url(#SVGID_00000013156029563165671320000009814323530972993957_);fill:#E8BD05;" points="
			314.62,431.42 314.42,431.69 314.44,431.48 		"/>
		<polygon style="clip-path:url(#SVGID_00000013156029563165671320000009814323530972993957_);fill:#EED301;" points="
			314.02,431.59 314.04,431.8 313.85,431.71 313.66,431.8 313.67,431.59 313.54,431.43 313.74,431.38 313.85,431.2 313.96,431.38 
			314.16,431.43 		"/>
		<polygon style="clip-path:url(#SVGID_00000013156029563165671320000009814323530972993957_);fill:#E8BD05;" points="
			313.85,431.53 313.53,431.42 313.73,431.38 		"/>
		<polygon style="clip-path:url(#SVGID_00000013156029563165671320000009814323530972993957_);fill:#E8BD05;" points="
			313.96,431.38 313.84,431.53 313.84,431.2 		"/>
		<polygon style="clip-path:url(#SVGID_00000013156029563165671320000009814323530972993957_);fill:#E8BD05;" points="
			314.16,431.43 314.02,431.58 313.84,431.53 		"/>
		<polygon style="clip-path:url(#SVGID_00000013156029563165671320000009814323530972993957_);fill:#E8BD05;" points="314.04,431.8 
			313.84,431.71 313.84,431.53 		"/>
		<polygon style="clip-path:url(#SVGID_00000013156029563165671320000009814323530972993957_);fill:#E8BD05;" points="
			313.85,431.53 313.65,431.8 313.67,431.59 		"/>
		<polygon style="clip-path:url(#SVGID_00000013156029563165671320000009814323530972993957_);fill:#EED301;" points="313.34,431.9 
			313.36,432.11 313.17,432.03 312.97,432.11 312.99,431.9 312.85,431.75 313.06,431.69 313.17,431.51 313.27,431.69 313.48,431.75 
					"/>
		<polygon style="clip-path:url(#SVGID_00000013156029563165671320000009814323530972993957_);fill:#E8BD05;" points="
			313.17,431.85 312.85,431.74 313.05,431.7 		"/>
		<polygon style="clip-path:url(#SVGID_00000013156029563165671320000009814323530972993957_);fill:#E8BD05;" points="313.27,431.7 
			313.16,431.85 313.16,431.52 		"/>
		<polygon style="clip-path:url(#SVGID_00000013156029563165671320000009814323530972993957_);fill:#E8BD05;" points="
			313.48,431.74 313.34,431.9 313.16,431.85 		"/>
		<polygon style="clip-path:url(#SVGID_00000013156029563165671320000009814323530972993957_);fill:#E8BD05;" points="
			313.36,432.11 313.16,432.03 313.16,431.84 		"/>
		<polygon style="clip-path:url(#SVGID_00000013156029563165671320000009814323530972993957_);fill:#E8BD05;" points="
			313.17,431.85 312.97,432.12 312.99,431.91 		"/>
		<polygon style="clip-path:url(#SVGID_00000013156029563165671320000009814323530972993957_);fill:#EED301;" points="
			312.78,432.39 312.8,432.6 312.61,432.52 312.42,432.6 312.43,432.39 312.3,432.23 312.5,432.18 312.61,432 312.72,432.18 
			312.92,432.23 		"/>
		<polygon style="clip-path:url(#SVGID_00000013156029563165671320000009814323530972993957_);fill:#E8BD05;" points="
			312.61,432.33 312.29,432.23 312.49,432.18 		"/>
		<polygon style="clip-path:url(#SVGID_00000013156029563165671320000009814323530972993957_);fill:#E8BD05;" points="
			312.72,432.18 312.6,432.33 312.6,432 		"/>
		<polygon style="clip-path:url(#SVGID_00000013156029563165671320000009814323530972993957_);fill:#E8BD05;" points="
			312.92,432.23 312.79,432.39 312.61,432.34 		"/>
		<polygon style="clip-path:url(#SVGID_00000013156029563165671320000009814323530972993957_);fill:#E8BD05;" points="312.8,432.6 
			312.61,432.52 312.61,432.33 		"/>
		<polygon style="clip-path:url(#SVGID_00000013156029563165671320000009814323530972993957_);fill:#E8BD05;" points="
			312.61,432.33 312.41,432.6 312.43,432.39 		"/>
		<polygon style="clip-path:url(#SVGID_00000013156029563165671320000009814323530972993957_);fill:#EED301;" points="
			312.38,433.02 312.39,433.23 312.21,433.14 312.01,433.23 312.03,433.02 311.89,432.86 312.09,432.81 312.21,432.63 
			312.31,432.81 312.51,432.86 		"/>
		<polygon style="clip-path:url(#SVGID_00000013156029563165671320000009814323530972993957_);fill:#E8BD05;" points="312.2,432.96 
			311.89,432.86 312.09,432.81 		"/>
		<polygon style="clip-path:url(#SVGID_00000013156029563165671320000009814323530972993957_);fill:#E8BD05;" points="
			312.31,432.81 312.2,432.96 312.2,432.63 		"/>
		<polygon style="clip-path:url(#SVGID_00000013156029563165671320000009814323530972993957_);fill:#E8BD05;" points="
			312.52,432.86 312.38,433.02 312.2,432.96 		"/>
		<polygon style="clip-path:url(#SVGID_00000013156029563165671320000009814323530972993957_);fill:#E8BD05;" points="312.4,433.23 
			312.2,433.14 312.2,432.96 		"/>
		<polygon style="clip-path:url(#SVGID_00000013156029563165671320000009814323530972993957_);fill:#E8BD05;" points="312.2,432.96 
			312.01,433.23 312.03,433.02 		"/>
		<polygon style="clip-path:url(#SVGID_00000013156029563165671320000009814323530972993957_);fill:#EED301;" points="
			312.16,433.75 312.18,433.96 311.99,433.88 311.79,433.96 311.81,433.75 311.67,433.59 311.88,433.54 311.99,433.36 
			312.09,433.54 312.3,433.59 		"/>
		<polygon style="clip-path:url(#SVGID_00000013156029563165671320000009814323530972993957_);fill:#E8BD05;" points="
			311.99,433.69 311.67,433.58 311.87,433.54 		"/>
		<polygon style="clip-path:url(#SVGID_00000013156029563165671320000009814323530972993957_);fill:#E8BD05;" points="312.1,433.54 
			311.98,433.69 311.98,433.36 		"/>
		<polygon style="clip-path:url(#SVGID_00000013156029563165671320000009814323530972993957_);fill:#E8BD05;" points="
			312.35,433.55 312.16,433.74 312.03,433.65 		"/>
		<polygon style="clip-path:url(#SVGID_00000013156029563165671320000009814323530972993957_);fill:#E8BD05;" points="
			312.18,433.96 311.98,433.87 311.98,433.69 		"/>
		<polygon style="clip-path:url(#SVGID_00000013156029563165671320000009814323530972993957_);fill:#E8BD05;" points="
			311.99,433.69 311.79,433.96 311.81,433.75 		"/>
		<polygon style="clip-path:url(#SVGID_00000013156029563165671320000009814323530972993957_);fill:#EED301;" points="
			312.17,434.53 312.18,434.74 311.99,434.66 311.8,434.74 311.81,434.53 311.68,434.38 311.88,434.32 311.99,434.14 312.1,434.32 
			312.3,434.38 		"/>
		<polygon style="clip-path:url(#SVGID_00000013156029563165671320000009814323530972993957_);fill:#E8BD05;" points="
			311.99,434.48 311.67,434.37 311.88,434.33 		"/>
		<polygon style="clip-path:url(#SVGID_00000013156029563165671320000009814323530972993957_);fill:#E8BD05;" points="312.1,434.33 
			311.99,434.48 311.99,434.15 		"/>
		<polygon style="clip-path:url(#SVGID_00000013156029563165671320000009814323530972993957_);fill:#E8BD05;" points="312.3,434.38 
			312.17,434.53 311.99,434.48 		"/>
		<polygon style="clip-path:url(#SVGID_00000013156029563165671320000009814323530972993957_);fill:#E8BD05;" points="
			312.18,434.74 311.99,434.66 311.99,434.47 		"/>
		<polygon style="clip-path:url(#SVGID_00000013156029563165671320000009814323530972993957_);fill:#E8BD05;" points="
			311.99,434.48 311.79,434.75 311.82,434.54 		"/>
		<polygon style="clip-path:url(#SVGID_00000013156029563165671320000009814323530972993957_);fill:#EED301;" points="
			312.39,435.26 312.4,435.47 312.22,435.39 312.02,435.47 312.04,435.26 311.9,435.1 312.1,435.05 312.22,434.87 312.32,435.05 
			312.52,435.1 		"/>
		<polygon style="clip-path:url(#SVGID_00000013156029563165671320000009814323530972993957_);fill:#E8BD05;" points="312.21,435.2 
			311.9,435.1 312.1,435.05 		"/>
		<polygon style="clip-path:url(#SVGID_00000013156029563165671320000009814323530972993957_);fill:#E8BD05;" points="
			312.32,435.05 312.21,435.2 312.21,434.87 		"/>
		<polygon style="clip-path:url(#SVGID_00000013156029563165671320000009814323530972993957_);fill:#E8BD05;" points="312.52,435.1 
			312.39,435.26 312.21,435.21 		"/>
		<polygon style="clip-path:url(#SVGID_00000013156029563165671320000009814323530972993957_);fill:#E8BD05;" points="312.4,435.47 
			312.21,435.39 312.21,435.2 		"/>
		<polygon style="clip-path:url(#SVGID_00000013156029563165671320000009814323530972993957_);fill:#E8BD05;" points="312.21,435.2 
			312.02,435.47 312.04,435.26 		"/>
		<polygon style="clip-path:url(#SVGID_00000013156029563165671320000009814323530972993957_);fill:#EED301;" points="312.8,435.88 
			312.81,436.09 312.62,436.01 312.43,436.09 312.44,435.88 312.31,435.73 312.51,435.67 312.62,435.49 312.73,435.67 
			312.93,435.73 		"/>
		<polygon style="clip-path:url(#SVGID_00000013156029563165671320000009814323530972993957_);fill:#E8BD05;" points="
			312.62,435.83 312.31,435.72 312.51,435.68 		"/>
		<polygon style="clip-path:url(#SVGID_00000013156029563165671320000009814323530972993957_);fill:#E8BD05;" points="
			312.73,435.68 312.62,435.83 312.62,435.5 		"/>
		<polygon style="clip-path:url(#SVGID_00000013156029563165671320000009814323530972993957_);fill:#E8BD05;" points="
			312.93,435.73 312.8,435.88 312.62,435.83 		"/>
		<polygon style="clip-path:url(#SVGID_00000013156029563165671320000009814323530972993957_);fill:#E8BD05;" points="
			312.81,436.09 312.62,436.01 312.62,435.82 		"/>
		<polygon style="clip-path:url(#SVGID_00000013156029563165671320000009814323530972993957_);fill:#E8BD05;" points="
			312.62,435.83 312.43,436.1 312.45,435.89 		"/>
		<polygon style="clip-path:url(#SVGID_00000013156029563165671320000009814323530972993957_);fill:#EED301;" points="
			313.36,436.37 313.37,436.58 313.19,436.5 312.99,436.58 313.01,436.37 312.87,436.21 313.07,436.16 313.19,435.98 313.29,436.16 
			313.49,436.21 		"/>
		<polygon style="clip-path:url(#SVGID_00000013156029563165671320000009814323530972993957_);fill:#E8BD05;" points="
			313.18,436.31 312.87,436.21 313.07,436.16 		"/>
		<polygon style="clip-path:url(#SVGID_00000013156029563165671320000009814323530972993957_);fill:#E8BD05;" points="
			313.29,436.16 313.18,436.31 313.18,435.98 		"/>
		<polygon style="clip-path:url(#SVGID_00000013156029563165671320000009814323530972993957_);fill:#E8BD05;" points="313.5,436.21 
			313.36,436.37 313.18,436.31 		"/>
		<polygon style="clip-path:url(#SVGID_00000013156029563165671320000009814323530972993957_);fill:#E8BD05;" points="
			313.38,436.58 313.18,436.49 313.18,436.31 		"/>
		<polygon style="clip-path:url(#SVGID_00000013156029563165671320000009814323530972993957_);fill:#E8BD05;" points="
			313.18,436.31 312.99,436.58 313.01,436.37 		"/>
		<polygon style="clip-path:url(#SVGID_00000013156029563165671320000009814323530972993957_);fill:#EED301;" points="
			314.04,436.68 314.06,436.89 313.87,436.81 313.68,436.89 313.69,436.68 313.56,436.52 313.76,436.47 313.87,436.29 
			313.98,436.47 314.18,436.52 		"/>
		<polygon style="clip-path:url(#SVGID_00000013156029563165671320000009814323530972993957_);fill:#E8BD05;" points="
			313.87,436.62 313.55,436.52 313.75,436.47 		"/>
		<polygon style="clip-path:url(#SVGID_00000013156029563165671320000009814323530972993957_);fill:#E8BD05;" points="
			313.98,436.47 313.86,436.62 313.86,436.29 		"/>
		<polygon style="clip-path:url(#SVGID_00000013156029563165671320000009814323530972993957_);fill:#E8BD05;" points="
			314.18,436.52 314.05,436.68 313.87,436.63 		"/>
		<polygon style="clip-path:url(#SVGID_00000013156029563165671320000009814323530972993957_);fill:#E8BD05;" points="
			314.06,436.89 313.87,436.81 313.87,436.62 		"/>
		<polygon style="clip-path:url(#SVGID_00000013156029563165671320000009814323530972993957_);fill:#E8BD05;" points="
			313.87,436.62 313.67,436.89 313.69,436.68 		"/>
		<polygon style="clip-path:url(#SVGID_00000013156029563165671320000009814323530972993957_);fill:#EED301;" points="
			314.81,436.79 314.83,437 314.64,436.91 314.45,437 314.46,436.79 314.33,436.63 314.53,436.58 314.64,436.4 314.75,436.58 
			314.95,436.63 		"/>
		<polygon style="clip-path:url(#SVGID_00000013156029563165671320000009814323530972993957_);fill:#E8BD05;" points="
			314.64,436.73 314.32,436.62 314.53,436.58 		"/>
		<polygon style="clip-path:url(#SVGID_00000013156029563165671320000009814323530972993957_);fill:#E8BD05;" points="
			314.75,436.58 314.63,436.73 314.63,436.4 		"/>
		<polygon style="clip-path:url(#SVGID_00000013156029563165671320000009814323530972993957_);fill:#E8BD05;" points="
			314.95,436.63 314.82,436.79 314.64,436.73 		"/>
		<polygon style="clip-path:url(#SVGID_00000013156029563165671320000009814323530972993957_);fill:#E8BD05;" points="314.83,437 
			314.64,436.91 314.64,436.73 		"/>
		<polygon style="clip-path:url(#SVGID_00000013156029563165671320000009814323530972993957_);fill:#E8BD05;" points="
			314.64,436.73 314.44,437 314.47,436.79 		"/>
		<polygon style="clip-path:url(#SVGID_00000013156029563165671320000009814323530972993957_);fill:#EED301;" points="
			315.58,436.67 315.6,436.88 315.41,436.79 315.21,436.88 315.23,436.67 315.09,436.51 315.3,436.46 315.41,436.28 315.51,436.46 
			315.72,436.51 		"/>
		<polygon style="clip-path:url(#SVGID_00000013156029563165671320000009814323530972993957_);fill:#E8BD05;" points="315.4,436.61 
			315.09,436.51 315.29,436.46 		"/>
		<polygon style="clip-path:url(#SVGID_00000013156029563165671320000009814323530972993957_);fill:#E8BD05;" points="
			315.51,436.46 315.4,436.61 315.4,436.28 		"/>
		<polygon style="clip-path:url(#SVGID_00000013156029563165671320000009814323530972993957_);fill:#E8BD05;" points="
			315.72,436.51 315.58,436.67 315.4,436.61 		"/>
		<polygon style="clip-path:url(#SVGID_00000013156029563165671320000009814323530972993957_);fill:#E8BD05;" points="315.6,436.88 
			315.4,436.79 315.4,436.61 		"/>
		<polygon style="clip-path:url(#SVGID_00000013156029563165671320000009814323530972993957_);fill:#E8BD05;" points="315.4,436.61 
			315.21,436.88 315.23,436.67 		"/>
		<polygon style="clip-path:url(#SVGID_00000013156029563165671320000009814323530972993957_);fill:#EED301;" points="
			316.26,436.34 316.27,436.55 316.09,436.47 315.89,436.55 315.91,436.34 315.77,436.19 315.97,436.13 316.09,435.95 
			316.19,436.13 316.39,436.19 		"/>
		<polygon style="clip-path:url(#SVGID_00000013156029563165671320000009814323530972993957_);fill:#E8BD05;" points="
			316.08,436.29 315.77,436.18 315.97,436.14 		"/>
		<polygon style="clip-path:url(#SVGID_00000013156029563165671320000009814323530972993957_);fill:#E8BD05;" points="
			316.19,436.14 316.08,436.29 316.08,435.96 		"/>
		<polygon style="clip-path:url(#SVGID_00000013156029563165671320000009814323530972993957_);fill:#E8BD05;" points="316.4,436.19 
			316.26,436.34 316.08,436.29 		"/>
		<polygon style="clip-path:url(#SVGID_00000013156029563165671320000009814323530972993957_);fill:#E8BD05;" points="
			316.28,436.55 316.08,436.47 316.08,436.28 		"/>
		<polygon style="clip-path:url(#SVGID_00000013156029563165671320000009814323530972993957_);fill:#E8BD05;" points="
			316.08,436.29 315.89,436.56 315.91,436.35 		"/>
		<polygon style="clip-path:url(#SVGID_00000013156029563165671320000009814323530972993957_);fill:#EED301;" points="
			316.81,435.85 316.83,436.06 316.64,435.98 316.45,436.06 316.46,435.85 316.33,435.7 316.53,435.64 316.64,435.46 316.75,435.64 
			316.95,435.7 		"/>
		<polygon style="clip-path:url(#SVGID_00000013156029563165671320000009814323530972993957_);fill:#E8BD05;" points="
			316.64,435.79 316.32,435.69 316.53,435.65 		"/>
		<polygon style="clip-path:url(#SVGID_00000013156029563165671320000009814323530972993957_);fill:#E8BD05;" points="
			316.75,435.65 316.63,435.8 316.63,435.47 		"/>
		<polygon style="clip-path:url(#SVGID_00000013156029563165671320000009814323530972993957_);fill:#E8BD05;" points="
			316.95,435.69 316.82,435.85 316.64,435.8 		"/>
		<polygon style="clip-path:url(#SVGID_00000013156029563165671320000009814323530972993957_);fill:#E8BD05;" points="
			316.83,436.06 316.64,435.98 316.64,435.79 		"/>
		<polygon style="clip-path:url(#SVGID_00000013156029563165671320000009814323530972993957_);fill:#E8BD05;" points="
			316.64,435.79 316.44,436.07 316.47,435.86 		"/>
		<polygon style="clip-path:url(#SVGID_00000013156029563165671320000009814323530972993957_);fill:#EED301;" points="
			317.21,435.22 317.23,435.43 317.04,435.35 316.85,435.43 316.86,435.22 316.73,435.07 316.93,435.01 317.04,434.83 
			317.15,435.01 317.35,435.07 		"/>
		<polygon style="clip-path:url(#SVGID_00000013156029563165671320000009814323530972993957_);fill:#E8BD05;" points="
			317.04,435.17 316.72,435.06 316.92,435.02 		"/>
		<polygon style="clip-path:url(#SVGID_00000013156029563165671320000009814323530972993957_);fill:#E8BD05;" points="
			317.15,435.02 317.03,435.17 317.03,434.84 		"/>
		<polygon style="clip-path:url(#SVGID_00000013156029563165671320000009814323530972993957_);fill:#E8BD05;" points="
			317.35,435.06 317.22,435.22 317.04,435.17 		"/>
		<polygon style="clip-path:url(#SVGID_00000013156029563165671320000009814323530972993957_);fill:#E8BD05;" points="
			317.23,435.43 317.04,435.35 317.04,435.16 		"/>
		<polygon style="clip-path:url(#SVGID_00000013156029563165671320000009814323530972993957_);fill:#E8BD05;" points="
			317.04,435.17 316.84,435.44 316.86,435.23 		"/>
		<polygon style="clip-path:url(#SVGID_00000013156029563165671320000009814323530972993957_);fill:#EED301;" points="
			317.42,434.49 317.44,434.7 317.25,434.62 317.06,434.7 317.07,434.49 316.94,434.33 317.14,434.28 317.25,434.1 317.36,434.28 
			317.56,434.33 		"/>
		<polygon style="clip-path:url(#SVGID_00000013156029563165671320000009814323530972993957_);fill:#E8BD05;" points="
			317.25,434.43 316.93,434.33 317.14,434.28 		"/>
		<polygon style="clip-path:url(#SVGID_00000013156029563165671320000009814323530972993957_);fill:#E8BD05;" points="
			317.36,434.28 317.24,434.43 317.24,434.1 		"/>
		<polygon style="clip-path:url(#SVGID_00000013156029563165671320000009814323530972993957_);fill:#E8BD05;" points="
			317.56,434.33 317.43,434.49 317.25,434.44 		"/>
		<polygon style="clip-path:url(#SVGID_00000013156029563165671320000009814323530972993957_);fill:#E8BD05;" points="317.44,434.7 
			317.25,434.62 317.25,434.43 		"/>
		<polygon style="clip-path:url(#SVGID_00000013156029563165671320000009814323530972993957_);fill:#E8BD05;" points="
			317.25,434.43 317.05,434.7 317.08,434.49 		"/>
		<polygon style="clip-path:url(#SVGID_00000013156029563165671320000009814323530972993957_);fill:#EED301;" points="
			317.42,433.69 317.43,433.9 317.24,433.82 317.05,433.9 317.06,433.69 316.93,433.54 317.13,433.48 317.24,433.3 317.35,433.48 
			317.55,433.54 		"/>
		<polygon style="clip-path:url(#SVGID_00000013156029563165671320000009814323530972993957_);fill:#E8BD05;" points="
			317.24,433.64 316.93,433.53 317.13,433.49 		"/>
		<polygon style="clip-path:url(#SVGID_00000013156029563165671320000009814323530972993957_);fill:#E8BD05;" points="
			317.35,433.49 317.24,433.64 317.24,433.31 		"/>
		<polygon style="clip-path:url(#SVGID_00000013156029563165671320000009814323530972993957_);fill:#E8BD05;" points="
			317.55,433.53 317.42,433.69 317.24,433.64 		"/>
		<polygon style="clip-path:url(#SVGID_00000013156029563165671320000009814323530972993957_);fill:#E8BD05;" points="317.43,433.9 
			317.24,433.82 317.24,433.63 		"/>
		<polygon style="clip-path:url(#SVGID_00000013156029563165671320000009814323530972993957_);fill:#E8BD05;" points="
			317.24,433.64 317.05,433.91 317.07,433.7 		"/>
		<polygon style="clip-path:url(#SVGID_00000013156029563165671320000009814323530972993957_);fill:#EED301;" points="317.2,432.96 
			317.21,433.17 317.03,433.08 316.83,433.17 316.85,432.96 316.71,432.8 316.91,432.75 317.03,432.57 317.13,432.75 317.33,432.8 
					"/>
		<polygon style="clip-path:url(#SVGID_00000013156029563165671320000009814323530972993957_);fill:#E8BD05;" points="317.02,432.9 
			316.71,432.79 316.91,432.75 		"/>
		<polygon style="clip-path:url(#SVGID_00000013156029563165671320000009814323530972993957_);fill:#E8BD05;" points="
			317.13,432.75 317.02,432.9 317.02,432.57 		"/>
		<polygon style="clip-path:url(#SVGID_00000013156029563165671320000009814323530972993957_);fill:#E8BD05;" points="317.34,432.8 
			317.2,432.96 317.02,432.9 		"/>
		<polygon style="clip-path:url(#SVGID_00000013156029563165671320000009814323530972993957_);fill:#E8BD05;" points="
			317.22,433.17 317.02,433.08 317.02,432.9 		"/>
		<polygon style="clip-path:url(#SVGID_00000013156029563165671320000009814323530972993957_);fill:#E8BD05;" points="317.02,432.9 
			316.83,433.17 316.85,432.96 		"/>
		<polygon style="clip-path:url(#SVGID_00000013156029563165671320000009814323530972993957_);fill:#EED301;" points="
			316.79,432.34 316.81,432.55 316.62,432.46 316.43,432.55 316.44,432.34 316.31,432.18 316.51,432.13 316.62,431.95 
			316.73,432.13 316.93,432.18 		"/>
		<polygon style="clip-path:url(#SVGID_00000013156029563165671320000009814323530972993957_);fill:#E8BD05;" points="
			316.62,432.28 316.3,432.17 316.51,432.13 		"/>
		<polygon style="clip-path:url(#SVGID_00000013156029563165671320000009814323530972993957_);fill:#E8BD05;" points="
			316.73,432.13 316.61,432.28 316.61,431.95 		"/>
		<polygon style="clip-path:url(#SVGID_00000013156029563165671320000009814323530972993957_);fill:#E8BD05;" points="
			316.93,432.18 316.8,432.34 316.62,432.28 		"/>
		<polygon style="clip-path:url(#SVGID_00000013156029563165671320000009814323530972993957_);fill:#E8BD05;" points="
			316.81,432.55 316.62,432.46 316.62,432.28 		"/>
		<polygon style="clip-path:url(#SVGID_00000013156029563165671320000009814323530972993957_);fill:#E8BD05;" points="
			316.62,432.28 316.42,432.55 316.45,432.34 		"/>
		<polygon style="clip-path:url(#SVGID_00000013156029563165671320000009814323530972993957_);fill:#EED301;" points="
			316.23,431.87 316.24,432.08 316.06,431.99 315.86,432.08 315.88,431.87 315.74,431.71 315.94,431.65 316.06,431.48 
			316.16,431.65 316.36,431.71 		"/>
		<polygon style="clip-path:url(#SVGID_00000013156029563165671320000009814323530972993957_);fill:#E8BD05;" points="
			316.05,431.81 315.74,431.7 315.94,431.66 		"/>
		<polygon style="clip-path:url(#SVGID_00000013156029563165671320000009814323530972993957_);fill:#E8BD05;" points="
			316.16,431.66 316.05,431.81 316.05,431.48 		"/>
		<polygon style="clip-path:url(#SVGID_00000013156029563165671320000009814323530972993957_);fill:#E8BD05;" points="
			316.37,431.71 316.23,431.86 316.05,431.81 		"/>
		<polygon style="clip-path:url(#SVGID_00000013156029563165671320000009814323530972993957_);fill:#E8BD05;" points="
			316.25,432.08 316.05,431.99 316.05,431.81 		"/>
		<polygon style="clip-path:url(#SVGID_00000013156029563165671320000009814323530972993957_);fill:#E8BD05;" points="
			316.05,431.81 315.86,432.08 315.88,431.87 		"/>
		<polygon style="clip-path:url(#SVGID_00000013156029563165671320000009814323530972993957_);fill:#EED301;" points="
			315.52,431.58 315.54,431.79 315.35,431.7 315.16,431.79 315.17,431.58 315.04,431.42 315.24,431.37 315.35,431.19 315.46,431.37 
			315.66,431.42 		"/>
		<polygon style="clip-path:url(#SVGID_00000013156029563165671320000009814323530972993957_);fill:#E8BD05;" points="
			315.35,431.52 315.03,431.41 315.24,431.37 		"/>
		<polygon style="clip-path:url(#SVGID_00000013156029563165671320000009814323530972993957_);fill:#E8BD05;" points="
			315.46,431.37 315.34,431.52 315.34,431.19 		"/>
		<polygon style="clip-path:url(#SVGID_00000013156029563165671320000009814323530972993957_);fill:#E8BD05;" points="
			315.66,431.42 315.53,431.57 315.35,431.52 		"/>
		<polygon style="clip-path:url(#SVGID_00000013156029563165671320000009814323530972993957_);fill:#E8BD05;" points="
			315.54,431.78 315.35,431.7 315.35,431.51 		"/>
		<polygon style="clip-path:url(#SVGID_00000013156029563165671320000009814323530972993957_);fill:#E8BD05;" points="
			315.35,431.52 315.15,431.79 315.18,431.58 		"/>
		<path style="clip-path:url(#SVGID_00000013156029563165671320000009814323530972993957_);fill:#C41D1D;" d="M306.16,437
			c0.46,0,0.91-0.1,1.3-0.3c-0.59,0.5-1.36,0.8-2.18,0.8c-1.89,0-3.41-1.55-3.41-3.45s1.52-3.44,3.41-3.44c0.82,0,1.59,0.3,2.18,0.8
			c-0.39-0.19-0.83-0.3-1.3-0.3c-1.63,0-2.95,1.32-2.95,2.95C303.21,435.68,304.53,437,306.16,437"/>
		<polygon style="clip-path:url(#SVGID_00000013156029563165671320000009814323530972993957_);fill:#C41D1D;" points="
			308.47,435.57 307.79,434.62 306.69,435 307.38,434.06 306.67,433.13 307.78,433.5 308.45,432.55 308.44,433.71 309.55,434.05 
			308.44,434.41 		"/>
		<path style="clip-path:url(#SVGID_00000013156029563165671320000009814323530972993957_);fill:#FFFFFF;" d="M328.11,296.12v4.28
			c-0.04,0.04-0.12,0.04-0.17,0.08c-9.1,4.04-19.41,1.82-26.13-4.86v-14.88h-6.92c-0.87-9.73,4.37-19.29,13.68-23.49
			c5.2-2.31,10.85-2.6,15.95-1.11c-3.01-0.13-6.06,0.45-8.99,1.77c-10.18,4.58-14.75,16.52-10.18,26.74
			C309.36,293.53,318.96,298.14,328.11,296.12"/>
		<polygon style="clip-path:url(#SVGID_00000013156029563165671320000009814323530972993957_);fill:#FFFFFF;" points="
			342.55,279.37 335.63,275.34 329.79,280.8 331.48,272.99 324.49,269.12 332.45,268.31 333.96,260.46 337.18,267.78 345.12,266.79 
			339.16,272.12 		"/>
		<path style="clip-path:url(#SVGID_00000013156029563165671320000009814323530972993957_);fill:#288F37;" d="M322.99,434.68
			c0-0.02,0-0.04,0-0.07c0-0.84-0.67-1.52-1.52-1.52c-0.84,0-1.52,0.68-1.52,1.52c0,0.3,0.09,0.58,0.24,0.83
			C321.02,434.96,321.98,434.69,322.99,434.68"/>
		<path style="clip-path:url(#SVGID_00000013156029563165671320000009814323530972993957_);fill:#288F37;" d="M320.34,434.49
			c0-0.61,0.36-1.13,0.88-1.37c-0.72,0.12-1.26,0.74-1.26,1.49c0,0.3,0.09,0.58,0.24,0.83c0.11-0.07,0.23-0.13,0.35-0.18
			C320.41,435.03,320.34,434.77,320.34,434.49"/>
		<path style="clip-path:url(#SVGID_00000013156029563165671320000009814323530972993957_);fill:#288F37;" d="M323,430.72
			c0,0-0.18,0.07-0.28,0.21c0,0,0.33-0.07,0.56,0.02c0,0-1.24,0.25-1.19,1.95c0,0,0.27-0.59,0.58-0.81c0,0-0.03,0.2-0.01,0.34
			c0,0,0.24-0.55,0.55-0.78c0,0-0.13,0.18-0.13,0.32c0,0,0.12-0.16,0.34-0.24c0,0-0.38,0.73,0.44,1.38c0,0-0.21-0.61-0.11-0.88
			c0,0,0.12,0.11,0.21,0.2c0,0-0.15-0.47,0.1-0.83c0.38,1.28-0.4,2.66-0.68,3.09c0.46,0.02,0.92,0.11,1.35,0.23
			c0.29-0.63,0.73-1.03,1.02-1.25c-0.01,0.07-0.07,0.23-0.24,0.34c0,0,0.13,0.03,0.2,0.01c0,0-0.17,0.26-0.37,0.33
			c0,0,0.12,0.05,0.26,0.02c0,0-0.23,0.35-0.48,0.43c0,0,0.42,0.1,0.72-0.17c0.26-0.23,0.32-0.67,0.32-0.67s0.05,0.1,0.05,0.23
			c0,0,0.08-0.08,0.08-0.2c0,0,0.11,0.2,0.09,0.4c0,0,0.11-0.1,0.13-0.18c0,0,0.15,0.35-0.01,0.61c0,0,0.32-0.23,0.3-0.64
			c-0.01-0.44-0.29-0.57-0.29-0.57s0.16,0,0.3,0.09c0,0-0.04-0.13-0.13-0.18c0,0,0.38-0.08,0.79,0.27c0,0-0.37-0.62-1.05-0.59
			c0,0,0.38-0.59-0.33-1.09c0,0,0.14,0.37,0.09,0.69c0,0-0.05-0.11-0.16-0.17c0,0,0.07,0.22,0.01,0.38c0,0-0.23-0.8-1.36-0.68
			c0,0,0.41,0.15,0.57,0.35c0,0-0.13-0.01-0.22,0.01c0,0,0.38,0.13,0.55,0.32c0,0-0.13-0.07-0.22-0.07c0,0,0.1,0.08,0.17,0.22
			c0,0-0.5-0.22-0.89,0.36c0,0,0.39-0.16,0.58-0.12c0,0-0.07,0.08-0.12,0.15c0,0,0.26-0.11,0.5,0c-0.94,0.44-1.4,1.15-1.4,1.15
			c0.69-1.49,0.2-2.89,0.07-3.2c0.11,0.05,0.29,0.15,0.41,0.38c0,0,0.05-0.2,0.03-0.3c0,0,0.37,0.28,0.46,0.58
			c0,0,0.08-0.17,0.06-0.38c0,0,0.5,0.38,0.58,0.78c0,0,0.2-0.63-0.16-1.11c-0.31-0.41-0.96-0.55-0.96-0.55s0.16-0.06,0.36-0.05
			c0,0-0.11-0.12-0.28-0.14c0,0,0.3-0.14,0.61-0.08c0,0-0.15-0.19-0.26-0.22c0,0,0.54-0.19,0.93,0.08c0,0-0.31-0.5-0.92-0.53
			c-0.67-0.03-0.89,0.38-0.89,0.38s0.02-0.24,0.18-0.45c0,0-0.21,0.05-0.29,0.18c0,0-0.07-0.58,0.5-1.15c0,0-0.97,0.47-1.01,1.5
			c0,0-0.84-0.65-1.67,0.36C321.95,430.77,322.52,430.6,323,430.72"/>
		<path style="clip-path:url(#SVGID_00000013156029563165671320000009814323530972993957_);fill:#288F37;" d="M323.7,436.12
			c1.14,0.26,2.18,0.69,2.99,1.43c-0.61-1-1.61-1.76-2.83-2.05c-1.23-0.29-2.54,0.09-3.52,0.73
			C321.38,435.91,322.56,435.86,323.7,436.12"/>
		<path style="clip-path:url(#SVGID_00000013156029563165671320000009814323530972993957_);fill:#288F37;" d="M323.58,435.59
			c1.55,0,3.01,0.41,4.26,1.13c-1.08-1.11-2.59-1.8-4.26-1.8s-3.18,0.69-4.26,1.8C320.58,436.01,322.03,435.59,323.58,435.59"/>
		<path style="clip-path:url(#SVGID_00000013156029563165671320000009814323530972993957_);fill:#288F37;" d="M323.59,436.72
			c1.13,0,2.19,0.3,3.1,0.83c-0.79-0.81-1.88-1.35-3.1-1.35c-1.21-0.01-2.32,0.53-3.11,1.34
			C321.4,437.01,322.45,436.72,323.59,436.72"/>
		<polygon style="clip-path:url(#SVGID_00000013156029563165671320000009814323530972993957_);fill:#EED301;" points="
			190.81,262.64 191.06,265.71 188.23,264.52 185.38,265.71 185.64,262.64 183.63,260.31 186.63,259.61 188.23,256.97 
			189.82,259.61 192.82,260.31 		"/>
		<polygon style="clip-path:url(#SVGID_00000013156029563165671320000009814323530972993957_);fill:#E8BD05;" points="188.23,261.8 
			183.63,260.31 186.63,259.61 		"/>
		<polygon style="clip-path:url(#SVGID_00000013156029563165671320000009814323530972993957_);fill:#E8BD05;" points="
			189.82,259.61 188.22,261.8 188.22,256.97 		"/>
		<polygon style="clip-path:url(#SVGID_00000013156029563165671320000009814323530972993957_);fill:#E8BD05;" points="
			192.82,260.31 190.8,262.64 188.22,261.8 		"/>
		<polygon style="clip-path:url(#SVGID_00000013156029563165671320000009814323530972993957_);fill:#E8BD05;" points="
			191.07,265.71 188.22,264.52 188.22,261.81 		"/>
		<polygon style="clip-path:url(#SVGID_00000013156029563165671320000009814323530972993957_);fill:#E8BD05;" points="188.23,261.8 
			185.38,265.71 185.65,262.64 		"/>
		<polygon style="clip-path:url(#SVGID_00000013156029563165671320000009814323530972993957_);fill:#EED301;" points="179.54,264.3 
			179.79,267.37 176.96,266.18 174.11,267.37 174.37,264.3 172.36,261.97 175.36,261.26 176.96,258.63 178.55,261.26 181.55,261.97 
					"/>
		<polygon style="clip-path:url(#SVGID_00000013156029563165671320000009814323530972993957_);fill:#E8BD05;" points="
			176.95,263.46 172.36,261.97 175.36,261.26 		"/>
		<polygon style="clip-path:url(#SVGID_00000013156029563165671320000009814323530972993957_);fill:#E8BD05;" points="
			178.55,261.26 176.95,263.46 176.95,258.62 		"/>
		<polygon style="clip-path:url(#SVGID_00000013156029563165671320000009814323530972993957_);fill:#E8BD05;" points="
			181.55,261.97 179.53,264.3 176.95,263.46 		"/>
		<polygon style="clip-path:url(#SVGID_00000013156029563165671320000009814323530972993957_);fill:#E8BD05;" points="
			179.79,267.37 176.95,266.18 176.95,263.46 		"/>
		<polygon style="clip-path:url(#SVGID_00000013156029563165671320000009814323530972993957_);fill:#E8BD05;" points="
			176.95,263.46 174.11,267.37 174.37,264.3 		"/>
		<polygon style="clip-path:url(#SVGID_00000013156029563165671320000009814323530972993957_);fill:#EED301;" points="
			169.56,268.95 169.82,272.01 166.98,270.82 164.14,272.01 164.39,268.95 162.38,266.61 165.38,265.91 166.98,263.28 
			168.58,265.91 171.58,266.61 		"/>
		<polygon style="clip-path:url(#SVGID_00000013156029563165671320000009814323530972993957_);fill:#E8BD05;" points="
			166.98,268.11 162.38,266.61 165.38,265.91 		"/>
		<polygon style="clip-path:url(#SVGID_00000013156029563165671320000009814323530972993957_);fill:#E8BD05;" points="
			168.58,265.91 166.98,268.11 166.98,263.27 		"/>
		<polygon style="clip-path:url(#SVGID_00000013156029563165671320000009814323530972993957_);fill:#E8BD05;" points="
			171.58,266.61 169.56,268.95 166.98,268.11 		"/>
		<polygon style="clip-path:url(#SVGID_00000013156029563165671320000009814323530972993957_);fill:#E8BD05;" points="
			169.82,272.02 166.98,270.82 166.98,268.11 		"/>
		<polygon style="clip-path:url(#SVGID_00000013156029563165671320000009814323530972993957_);fill:#E8BD05;" points="
			166.98,268.11 164.14,272.01 164.4,268.95 		"/>
		<polygon style="clip-path:url(#SVGID_00000013156029563165671320000009814323530972993957_);fill:#EED301;" points="161.37,276.1 
			161.62,279.16 158.79,277.97 155.95,279.16 156.2,276.1 154.19,273.76 157.19,273.06 158.79,270.43 160.39,273.06 163.39,273.76 
					"/>
		<polygon style="clip-path:url(#SVGID_00000013156029563165671320000009814323530972993957_);fill:#E8BD05;" points="
			158.79,275.26 154.19,273.77 157.19,273.06 		"/>
		<polygon style="clip-path:url(#SVGID_00000013156029563165671320000009814323530972993957_);fill:#E8BD05;" points="
			160.38,273.06 158.79,275.26 158.79,270.42 		"/>
		<polygon style="clip-path:url(#SVGID_00000013156029563165671320000009814323530972993957_);fill:#E8BD05;" points="
			163.38,273.76 161.37,276.1 158.79,275.26 		"/>
		<polygon style="clip-path:url(#SVGID_00000013156029563165671320000009814323530972993957_);fill:#E8BD05;" points="
			161.63,279.17 158.79,277.97 158.79,275.26 		"/>
		<polygon style="clip-path:url(#SVGID_00000013156029563165671320000009814323530972993957_);fill:#E8BD05;" points="
			158.79,275.26 155.95,279.17 156.21,276.1 		"/>
		<polygon style="clip-path:url(#SVGID_00000013156029563165671320000009814323530972993957_);fill:#EED301;" points="
			155.45,285.27 155.7,288.33 152.87,287.14 150.02,288.33 150.28,285.27 148.27,282.93 151.27,282.23 152.87,279.6 154.46,282.23 
			157.46,282.93 		"/>
		<polygon style="clip-path:url(#SVGID_00000013156029563165671320000009814323530972993957_);fill:#E8BD05;" points="
			152.86,284.43 148.27,282.93 151.27,282.23 		"/>
		<polygon style="clip-path:url(#SVGID_00000013156029563165671320000009814323530972993957_);fill:#E8BD05;" points="
			154.46,282.23 152.86,284.43 152.86,279.59 		"/>
		<polygon style="clip-path:url(#SVGID_00000013156029563165671320000009814323530972993957_);fill:#E8BD05;" points="
			157.46,282.93 155.44,285.27 152.86,284.43 		"/>
		<polygon style="clip-path:url(#SVGID_00000013156029563165671320000009814323530972993957_);fill:#E8BD05;" points="155.7,288.34 
			152.86,287.14 152.86,284.43 		"/>
		<polygon style="clip-path:url(#SVGID_00000013156029563165671320000009814323530972993957_);fill:#E8BD05;" points="
			152.86,284.43 150.02,288.33 150.28,285.27 		"/>
		<polygon style="clip-path:url(#SVGID_00000013156029563165671320000009814323530972993957_);fill:#EED301;" points="
			152.28,295.97 152.53,299.03 149.7,297.84 146.85,299.03 147.11,295.97 145.1,293.63 148.1,292.93 149.7,290.3 151.29,292.93 
			154.29,293.63 		"/>
		<polygon style="clip-path:url(#SVGID_00000013156029563165671320000009814323530972993957_);fill:#E8BD05;" points="
			149.69,295.13 145.1,293.64 148.1,292.93 		"/>
		<polygon style="clip-path:url(#SVGID_00000013156029563165671320000009814323530972993957_);fill:#E8BD05;" points="
			151.29,292.93 149.69,295.13 149.69,290.29 		"/>
		<polygon style="clip-path:url(#SVGID_00000013156029563165671320000009814323530972993957_);fill:#E8BD05;" points="
			155.01,293.07 152.28,295.97 150.41,294.56 		"/>
		<polygon style="clip-path:url(#SVGID_00000013156029563165671320000009814323530972993957_);fill:#E8BD05;" points="
			152.54,299.04 149.69,297.85 149.69,295.13 		"/>
		<polygon style="clip-path:url(#SVGID_00000013156029563165671320000009814323530972993957_);fill:#E8BD05;" points="
			149.69,295.13 146.85,299.04 147.11,295.97 		"/>
		<polygon style="clip-path:url(#SVGID_00000013156029563165671320000009814323530972993957_);fill:#EED301;" points="152.32,307.5 
			152.58,310.57 149.74,309.38 146.9,310.57 147.16,307.5 145.15,305.17 148.15,304.46 149.74,301.83 151.33,304.46 154.34,305.17 
					"/>
		<polygon style="clip-path:url(#SVGID_00000013156029563165671320000009814323530972993957_);fill:#E8BD05;" points="
			149.74,306.66 145.14,305.17 148.14,304.47 		"/>
		<polygon style="clip-path:url(#SVGID_00000013156029563165671320000009814323530972993957_);fill:#E8BD05;" points="
			151.34,304.47 149.74,306.66 149.74,301.83 		"/>
		<polygon style="clip-path:url(#SVGID_00000013156029563165671320000009814323530972993957_);fill:#E8BD05;" points="
			154.34,305.17 152.32,307.5 149.74,306.66 		"/>
		<polygon style="clip-path:url(#SVGID_00000013156029563165671320000009814323530972993957_);fill:#E8BD05;" points="
			152.58,310.57 149.74,309.38 149.74,306.67 		"/>
		<polygon style="clip-path:url(#SVGID_00000013156029563165671320000009814323530972993957_);fill:#E8BD05;" points="
			149.74,306.66 146.9,310.57 147.16,307.5 		"/>
		<polygon style="clip-path:url(#SVGID_00000013156029563165671320000009814323530972993957_);fill:#EED301;" points="
			155.58,318.17 155.83,321.24 153,320.04 150.16,321.24 150.41,318.17 148.4,315.84 151.4,315.13 153,312.5 154.59,315.13 
			157.6,315.84 		"/>
		<polygon style="clip-path:url(#SVGID_00000013156029563165671320000009814323530972993957_);fill:#E8BD05;" points="153,317.33 
			148.4,315.84 151.4,315.13 		"/>
		<polygon style="clip-path:url(#SVGID_00000013156029563165671320000009814323530972993957_);fill:#E8BD05;" points="
			154.59,315.13 152.99,317.33 152.99,312.49 		"/>
		<polygon style="clip-path:url(#SVGID_00000013156029563165671320000009814323530972993957_);fill:#E8BD05;" points="
			157.59,315.84 155.57,318.17 152.99,317.33 		"/>
		<polygon style="clip-path:url(#SVGID_00000013156029563165671320000009814323530972993957_);fill:#E8BD05;" points="
			155.84,321.24 152.99,320.05 152.99,317.33 		"/>
		<polygon style="clip-path:url(#SVGID_00000013156029563165671320000009814323530972993957_);fill:#E8BD05;" points="153,317.33 
			150.15,321.24 150.42,318.17 		"/>
		<polygon style="clip-path:url(#SVGID_00000013156029563165671320000009814323530972993957_);fill:#EED301;" points="
			161.57,327.29 161.83,330.35 158.99,329.16 156.15,330.35 156.4,327.29 154.39,324.95 157.39,324.25 158.99,321.62 160.58,324.25 
			163.59,324.95 		"/>
		<polygon style="clip-path:url(#SVGID_00000013156029563165671320000009814323530972993957_);fill:#E8BD05;" points="
			158.99,326.45 154.39,324.95 157.39,324.25 		"/>
		<polygon style="clip-path:url(#SVGID_00000013156029563165671320000009814323530972993957_);fill:#E8BD05;" points="
			160.59,324.25 158.99,326.45 158.99,321.61 		"/>
		<polygon style="clip-path:url(#SVGID_00000013156029563165671320000009814323530972993957_);fill:#E8BD05;" points="
			163.59,324.95 161.57,327.29 158.99,326.45 		"/>
		<polygon style="clip-path:url(#SVGID_00000013156029563165671320000009814323530972993957_);fill:#E8BD05;" points="
			161.83,330.36 158.99,329.17 158.99,326.45 		"/>
		<polygon style="clip-path:url(#SVGID_00000013156029563165671320000009814323530972993957_);fill:#E8BD05;" points="
			158.99,326.45 156.15,330.35 156.41,327.29 		"/>
		<polygon style="clip-path:url(#SVGID_00000013156029563165671320000009814323530972993957_);fill:#EED301;" points="
			169.82,334.37 170.08,337.44 167.24,336.25 164.4,337.44 164.65,334.37 162.64,332.04 165.64,331.34 167.24,328.7 168.83,331.34 
			171.84,332.04 		"/>
		<polygon style="clip-path:url(#SVGID_00000013156029563165671320000009814323530972993957_);fill:#E8BD05;" points="
			167.24,333.53 162.64,332.04 165.64,331.34 		"/>
		<polygon style="clip-path:url(#SVGID_00000013156029563165671320000009814323530972993957_);fill:#E8BD05;" points="
			168.83,331.34 167.24,333.53 167.24,328.7 		"/>
		<polygon style="clip-path:url(#SVGID_00000013156029563165671320000009814323530972993957_);fill:#E8BD05;" points="
			171.84,332.04 169.82,334.37 167.24,333.53 		"/>
		<polygon style="clip-path:url(#SVGID_00000013156029563165671320000009814323530972993957_);fill:#E8BD05;" points="
			170.08,337.44 167.24,336.25 167.24,333.54 		"/>
		<polygon style="clip-path:url(#SVGID_00000013156029563165671320000009814323530972993957_);fill:#E8BD05;" points="
			167.24,333.53 164.4,337.44 164.66,334.37 		"/>
		<polygon style="clip-path:url(#SVGID_00000013156029563165671320000009814323530972993957_);fill:#EED301;" points="
			179.84,338.94 180.09,342.01 177.26,340.82 174.42,342.01 174.67,338.94 172.66,336.61 175.66,335.9 177.26,333.27 178.86,335.9 
			181.86,336.61 		"/>
		<polygon style="clip-path:url(#SVGID_00000013156029563165671320000009814323530972993957_);fill:#E8BD05;" points="177.26,338.1 
			172.66,336.61 175.66,335.9 		"/>
		<polygon style="clip-path:url(#SVGID_00000013156029563165671320000009814323530972993957_);fill:#E8BD05;" points="
			178.85,335.91 177.25,338.1 177.25,333.27 		"/>
		<polygon style="clip-path:url(#SVGID_00000013156029563165671320000009814323530972993957_);fill:#E8BD05;" points="
			181.85,336.61 179.83,338.94 177.25,338.1 		"/>
		<polygon style="clip-path:url(#SVGID_00000013156029563165671320000009814323530972993957_);fill:#E8BD05;" points="180.1,342.01 
			177.25,340.82 177.25,338.1 		"/>
		<polygon style="clip-path:url(#SVGID_00000013156029563165671320000009814323530972993957_);fill:#E8BD05;" points="177.26,338.1 
			174.41,342.01 174.68,338.94 		"/>
		<polygon style="clip-path:url(#SVGID_00000013156029563165671320000009814323530972993957_);fill:#EED301;" points="
			191.14,340.51 191.39,343.57 188.56,342.38 185.72,343.57 185.97,340.51 183.96,338.17 186.96,337.47 188.56,334.84 
			190.16,337.47 193.16,338.17 		"/>
		<polygon style="clip-path:url(#SVGID_00000013156029563165671320000009814323530972993957_);fill:#E8BD05;" points="
			188.56,339.67 183.96,338.18 186.96,337.47 		"/>
		<polygon style="clip-path:url(#SVGID_00000013156029563165671320000009814323530972993957_);fill:#E8BD05;" points="
			190.15,337.47 188.56,339.67 188.56,334.83 		"/>
		<polygon style="clip-path:url(#SVGID_00000013156029563165671320000009814323530972993957_);fill:#E8BD05;" points="
			193.15,338.17 191.14,340.51 188.56,339.67 		"/>
		<polygon style="clip-path:url(#SVGID_00000013156029563165671320000009814323530972993957_);fill:#E8BD05;" points="191.4,343.58 
			188.56,342.38 188.56,339.67 		"/>
		<polygon style="clip-path:url(#SVGID_00000013156029563165671320000009814323530972993957_);fill:#E8BD05;" points="
			188.56,339.67 185.71,343.58 185.98,340.51 		"/>
		<polygon style="clip-path:url(#SVGID_00000013156029563165671320000009814323530972993957_);fill:#EED301;" points="
			202.38,338.76 202.64,341.83 199.8,340.63 196.96,341.83 197.21,338.76 195.2,336.43 198.2,335.72 199.8,333.09 201.39,335.72 
			204.4,336.43 		"/>
		<polygon style="clip-path:url(#SVGID_00000013156029563165671320000009814323530972993957_);fill:#E8BD05;" points="199.8,337.92 
			195.2,336.43 198.2,335.72 		"/>
		<polygon style="clip-path:url(#SVGID_00000013156029563165671320000009814323530972993957_);fill:#E8BD05;" points="
			201.39,335.72 199.8,337.92 199.8,333.08 		"/>
		<polygon style="clip-path:url(#SVGID_00000013156029563165671320000009814323530972993957_);fill:#E8BD05;" points="204.4,336.43 
			202.38,338.76 199.8,337.92 		"/>
		<polygon style="clip-path:url(#SVGID_00000013156029563165671320000009814323530972993957_);fill:#E8BD05;" points="
			202.64,341.83 199.8,340.64 199.8,337.92 		"/>
		<polygon style="clip-path:url(#SVGID_00000013156029563165671320000009814323530972993957_);fill:#E8BD05;" points="199.8,337.92 
			196.96,341.83 197.22,338.76 		"/>
		<polygon style="clip-path:url(#SVGID_00000013156029563165671320000009814323530972993957_);fill:#EED301;" points="
			212.31,334.04 212.57,337.1 209.73,335.91 206.89,337.1 207.14,334.04 205.13,331.7 208.13,331 209.73,328.37 211.32,331 
			214.33,331.7 		"/>
		<polygon style="clip-path:url(#SVGID_00000013156029563165671320000009814323530972993957_);fill:#E8BD05;" points="209.73,333.2 
			205.13,331.7 208.13,331 		"/>
		<polygon style="clip-path:url(#SVGID_00000013156029563165671320000009814323530972993957_);fill:#E8BD05;" points="211.33,331 
			209.73,333.2 209.73,328.36 		"/>
		<polygon style="clip-path:url(#SVGID_00000013156029563165671320000009814323530972993957_);fill:#E8BD05;" points="214.33,331.7 
			212.31,334.04 209.73,333.2 		"/>
		<polygon style="clip-path:url(#SVGID_00000013156029563165671320000009814323530972993957_);fill:#E8BD05;" points="
			212.57,337.11 209.73,335.91 209.73,333.2 		"/>
		<polygon style="clip-path:url(#SVGID_00000013156029563165671320000009814323530972993957_);fill:#E8BD05;" points="209.73,333.2 
			206.89,337.1 207.15,334.04 		"/>
		<polygon style="clip-path:url(#SVGID_00000013156029563165671320000009814323530972993957_);fill:#EED301;" points="
			220.44,326.82 220.71,329.89 217.87,328.7 215.02,329.89 215.28,326.82 213.27,324.49 216.27,323.79 216.57,323.29 219.15,323.29 
			219.46,323.79 222.46,324.49 		"/>
		<polygon style="clip-path:url(#SVGID_00000013156029563165671320000009814323530972993957_);fill:#E8BD05;" points="
			217.86,325.98 213.27,324.49 216.27,323.78 		"/>
		<polygon style="clip-path:url(#SVGID_00000013156029563165671320000009814323530972993957_);fill:#E8BD05;" points="
			219.46,323.79 217.87,325.99 217.87,323.29 219.15,323.29 		"/>
		<polygon style="clip-path:url(#SVGID_00000013156029563165671320000009814323530972993957_);fill:#E8BD05;" points="
			222.46,324.49 220.44,326.82 217.86,325.98 		"/>
		<polygon style="clip-path:url(#SVGID_00000013156029563165671320000009814323530972993957_);fill:#E8BD05;" points="220.7,329.89 
			217.86,328.7 217.86,325.98 		"/>
		<polygon style="clip-path:url(#SVGID_00000013156029563165671320000009814323530972993957_);fill:#E8BD05;" points="
			217.86,325.98 215.02,329.89 215.28,326.82 		"/>
		<polygon style="clip-path:url(#SVGID_00000013156029563165671320000009814323530972993957_);fill:#EED301;" points="224.6,280.53 
			222.4,280.53 223.49,278.71 		"/>
		<polygon style="clip-path:url(#SVGID_00000013156029563165671320000009814323530972993957_);fill:#E8BD05;" points="224.6,280.53 
			223.49,280.53 223.49,278.71 		"/>
		<polygon style="clip-path:url(#SVGID_00000013156029563165671320000009814323530972993957_);fill:#EED301;" points="220.16,275.3 
			220.42,278.36 217.58,277.17 214.74,278.36 215,275.3 212.99,272.96 215.99,272.26 217.58,269.63 219.17,272.26 222.18,272.96 		
			"/>
		<polygon style="clip-path:url(#SVGID_00000013156029563165671320000009814323530972993957_);fill:#E8BD05;" points="
			217.58,274.46 212.98,272.96 215.98,272.26 		"/>
		<polygon style="clip-path:url(#SVGID_00000013156029563165671320000009814323530972993957_);fill:#E8BD05;" points="
			219.18,272.26 217.58,274.46 217.58,269.62 		"/>
		<polygon style="clip-path:url(#SVGID_00000013156029563165671320000009814323530972993957_);fill:#E8BD05;" points="
			222.18,272.96 220.16,275.3 217.58,274.46 		"/>
		<polygon style="clip-path:url(#SVGID_00000013156029563165671320000009814323530972993957_);fill:#E8BD05;" points="
			220.42,278.37 217.58,277.17 217.58,274.46 		"/>
		<polygon style="clip-path:url(#SVGID_00000013156029563165671320000009814323530972993957_);fill:#E8BD05;" points="
			217.58,274.46 214.74,278.36 215,275.3 		"/>
		<polygon style="clip-path:url(#SVGID_00000013156029563165671320000009814323530972993957_);fill:#EED301;" points="
			211.87,268.39 212.12,271.46 209.29,270.26 206.45,271.46 206.7,268.39 204.69,266.06 207.69,265.35 209.29,262.72 210.88,265.35 
			213.89,266.06 		"/>
		<polygon style="clip-path:url(#SVGID_00000013156029563165671320000009814323530972993957_);fill:#E8BD05;" points="
			209.29,267.55 204.69,266.06 207.69,265.35 		"/>
		<polygon style="clip-path:url(#SVGID_00000013156029563165671320000009814323530972993957_);fill:#E8BD05;" points="
			210.88,265.35 209.29,267.55 209.29,262.71 		"/>
		<polygon style="clip-path:url(#SVGID_00000013156029563165671320000009814323530972993957_);fill:#E8BD05;" points="
			213.88,266.05 211.87,268.39 209.29,267.55 		"/>
		<polygon style="clip-path:url(#SVGID_00000013156029563165671320000009814323530972993957_);fill:#E8BD05;" points="
			212.13,271.46 209.28,270.27 209.28,267.55 		"/>
		<polygon style="clip-path:url(#SVGID_00000013156029563165671320000009814323530972993957_);fill:#E8BD05;" points="
			209.29,267.55 206.44,271.46 206.71,268.39 		"/>
		<polygon style="clip-path:url(#SVGID_00000013156029563165671320000009814323530972993957_);fill:#EED301;" points="
			201.54,264.14 201.79,267.21 198.96,266.02 196.12,267.21 196.37,264.14 194.36,261.81 197.36,261.1 198.96,258.47 200.56,261.1 
			203.56,261.81 		"/>
		<polygon style="clip-path:url(#SVGID_00000013156029563165671320000009814323530972993957_);fill:#E8BD05;" points="198.96,263.3 
			194.36,261.81 197.36,261.11 		"/>
		<polygon style="clip-path:url(#SVGID_00000013156029563165671320000009814323530972993957_);fill:#E8BD05;" points="
			200.55,261.11 198.96,263.3 198.96,258.47 		"/>
		<polygon style="clip-path:url(#SVGID_00000013156029563165671320000009814323530972993957_);fill:#E8BD05;" points="
			203.55,261.81 201.54,264.14 198.96,263.3 		"/>
		<polygon style="clip-path:url(#SVGID_00000013156029563165671320000009814323530972993957_);fill:#E8BD05;" points="201.8,267.21 
			198.96,266.02 198.96,263.3 		"/>
		<polygon style="clip-path:url(#SVGID_00000013156029563165671320000009814323530972993957_);fill:#E8BD05;" points="198.96,263.3 
			196.12,267.21 196.38,264.14 		"/>
	</g>
</g>
</svg>
